<svg id="Calque_1" data-name="Calque 1" xmlns="http://www.w3.org/2000/svg" viewBox="0 0 213.22 65"><defs><style>.cls-1,.cls-2{fill:#fff;}.cls-2{font-size:40.5px;font-family:SketchnoteSquare, Sketchnote Square;}</style></defs><ellipse cx="37.26" cy="32.5" rx="37.26" ry="32.5"/><ellipse cx="140.12" cy="36.65" rx="73.1" ry="25.72"/><path class="cls-1" d="M582.16,340.84h-24a4.08,4.08,0,0,0-1.47-2.32h26.8A4.15,4.15,0,0,0,582.16,340.84Z" transform="translate(-532.89 -287)"/><path class="cls-1" d="M557,342.09a3.83,3.83,0,1,1-3.83-3.83h.27a3.81,3.81,0,0,1,3.27,2.37A3.72,3.72,0,0,1,557,342.09Z" transform="translate(-532.89 -287)"/><path class="cls-1" d="M591,341.68a3.83,3.83,0,1,1-7.63.75,3.93,3.93,0,0,1,.27-1.79,3.81,3.81,0,0,1,2.1-2.09,3.76,3.76,0,0,1,1.78-.28A3.86,3.86,0,0,1,591,341.68Z" transform="translate(-532.89 -287)"/><path class="cls-1" d="M596.27,305.32l-.4,2.06L592.3,326a.43.43,0,0,1-.43.34l-34.21,0a.42.42,0,0,0-.41.3l-1.07,3.36c-.06.18-2.23,6.75-2.44,7.22a3.06,3.06,0,0,0-2.43.46l4-11.94a.45.45,0,0,0,0-.23l-5.63-19.29-.11-.38-1.51-5.67c-.05-.18-.41-.2-.6-.2h-2.84c-.08,0-.13.93-.2,1a1.1,1.1,0,0,1-.61.19c-.58,0-1,0-1-.58a6.44,6.44,0,0,1,.2-1.95c.09-.27.57-.21.61-.2h5.06c.2,0,1,0,1,.2l.83,3.13.5,1.61a.42.42,0,0,0,.41.3l40.45,0h3.2a2.12,2.12,0,0,1,.69.53A2.17,2.17,0,0,1,596.27,305.32Z" transform="translate(-532.89 -287)"/><text class="cls-2" transform="translate(75.74 49.68)">O</text><text class="cls-2" transform="translate(106.79 53.09) rotate(-9)">r</text><text class="cls-2" transform="translate(120.57 50.89)">i<tspan x="9.48" y="0.54">n</tspan><tspan x="29.52" y="0.81">oco</tspan></text></svg>