<svg id="Calque_1" data-name="Calque 1" xmlns="http://www.w3.org/2000/svg" viewBox="0 0 168.01 65"><defs><style>.cls-1,.cls-2,.cls-3{fill:#fff;}.cls-2{font-size:35.52px;font-family:SketchnoteSquare, Sketchnote Square;}.cls-3{stroke:#000;stroke-miterlimit:10;stroke-width:2px;}</style></defs><ellipse cx="114.37" cy="30.01" rx="53.63" ry="26.11"/><circle cx="32.5" cy="32.5" r="32.5"/><path class="cls-1" d="M562.67,345.39a1.62,1.62,0,0,1,0,.58l-.38,2.31-3.4,20.51a1.73,1.73,0,0,1-1.7,1.44H518.34a1.73,1.73,0,0,1-1.7-1.44l-3.4-20.51-.38-2.31a1.42,1.42,0,0,1,0-.58,2.61,2.61,0,0,1,.49-1.14h0a1.65,1.65,0,0,1,1.34-.65h46.13a1.66,1.66,0,0,1,1.34.65h0A2.61,2.61,0,0,1,562.67,345.39Z" transform="translate(-505 -320.5)"/><text class="cls-2" transform="translate(67.85 41.62)">Panier</text><rect x="18.11" y="29.66" width="2.66" height="16.69" rx="1.27"/><rect x="24.69" y="29.66" width="2.66" height="16.69" rx="1.27"/><rect x="31.26" y="29.66" width="2.66" height="16.69" rx="1.27"/><rect x="37.83" y="29.66" width="2.66" height="16.69" rx="1.27"/><rect x="44.4" y="29.66" width="2.66" height="16.69" rx="1.27"/><rect class="cls-3" x="4.8" y="19.89" width="55.59" height="5.15" rx="2.45"/><rect class="cls-3" x="29.3" y="9.77" width="6.57" height="12.79" rx="3.13"/></svg>